<?xml version="1.0" encoding="UTF-8"?>
<svg id="Layer_1" data-name="Layer 1" xmlns="http://www.w3.org/2000/svg" viewBox="0 0 187.96 50">
  <defs>
    <style>
      .cls-1 {
        fill: #ef3842;
      }

      .cls-1, .cls-2 {
        stroke-width: 0px;
      }

      .cls-2 {
        fill: #fff;
      }
    </style>
  </defs>
  <g>
    <path class="cls-1" d="M83.26,13.69c3.09.31,3.75,1.27,3.93,1.58.19.3.28.62.28.95,0,.48-.16.85-.48,1.09-.32.25-.75.37-1.29.37.77-3.47-3.87-3.07-4.96-2.93-5.17.66-9.9,6.59-9.9,6.59l4.83,6.74c.43.59.85,1.04,1.25,1.35.4.3.81.46,1.23.46h.04v.95h-.24c-.76,0-1.38-.03-1.86-.09-.48-.06-.89-.17-1.22-.32-.33-.15-.62-.36-.86-.62-.25-.26-.51-.59-.79-1l-4.02-5.89-1.78,2.13v3.22c0,.35.05.63.15.85.1.21.23.38.4.49.17.11.36.19.59.23.23.04.47.05.71.05h.3v.95h-6.56v-.95h.29c.25,0,.49-.02.71-.05s.42-.1.59-.2.3-.26.4-.46.15-.47.15-.8v-12.06c0-.33-.05-.6-.15-.8s-.23-.36-.4-.47c-.17-.11-.36-.18-.59-.21-.22-.03-.46-.05-.71-.05h-.29v-.95h6.56v.95h-.3c-.25,0-.49.02-.71.06-.23.04-.42.11-.59.23-.16.11-.3.28-.4.49-.1.21-.15.5-.15.85v6.86s7.68-10.41,15.84-9.57"/>
    <path class="cls-1" d="M87.55,24.77c0,2.12-.45,3.7-1.35,4.73-.9,1.03-2.21,1.55-3.94,1.55-.81,0-1.54-.13-2.19-.39s-1.19-.65-1.64-1.17-.8-1.18-1.03-1.96c-.24-.79-.36-1.71-.36-2.77,0-2.1.45-3.67,1.34-4.7.89-1.03,2.21-1.54,3.96-1.54.81,0,1.54.13,2.19.38.65.25,1.19.64,1.64,1.16.45.52.8,1.17,1.03,1.95.24.78.36,1.7.36,2.76ZM79.21,24.77c0,.84.06,1.57.17,2.21.11.64.29,1.17.53,1.6.25.43.57.75.96.97.39.22.87.33,1.44.33s1.04-.11,1.43-.33c.39-.22.7-.54.95-.97.24-.43.42-.96.52-1.6.11-.64.16-1.38.16-2.21s-.05-1.57-.16-2.2c-.11-.63-.29-1.16-.53-1.58-.24-.42-.56-.74-.95-.95-.39-.21-.87-.32-1.44-.32s-1.04.11-1.43.32-.7.53-.95.95c-.24.42-.42.95-.53,1.58-.11.63-.17,1.36-.17,2.2Z"/>
    <path class="cls-1" d="M124.66,29.89c-.25,0-.48-.02-.69-.05-.21-.04-.4-.11-.55-.23-.15-.11-.27-.28-.36-.49-.09-.21-.13-.5-.13-.85v-5.33c0-.77-.09-1.43-.26-1.99s-.43-1.01-.77-1.37-.75-.62-1.25-.79c-.49-.17-1.06-.26-1.7-.26-1.53,0-2.64.68-3.31,2.05h-.11c.01-.21.03-.43.04-.65.01-.19.03-.4.03-.62,0-.22.01-.44.01-.64v-4.95h-4.15v.67h.18c.25,0,.49.02.71.05.22.03.42.1.59.21.17.11.3.27.4.47.1.2.15.47.15.8v12.89c0,1.67-1.07,1.57-1.22,1.57-.64,0-1.67-1.74-2.06-2.34l-3-4.46,1.58-1.78c.59-.67,1.13-1.18,1.63-1.55.5-.37,1.01-.55,1.53-.55v-.95h-4.97v.95c.37,0,.65.03.83.08.18.06.27.18.27.37,0,.11-.02.23-.05.35-.04.12-.1.26-.2.41-.1.15-.22.33-.38.54-.16.21-.36.44-.6.71l-2.82,3.08c.01-.39.03-.76.04-1.11.01-.31.03-.62.03-.94s.01-.58.01-.79v-5.17c0-3.85-4.15-3.5-4.15-3.5v.68s2.02-.26,2.02,3.51v10.83c0,.35-.05.63-.15.85-.1.21-.23.38-.4.49-.16.11-.36.19-.58.23-.22.04-.46.05-.72.05h-.18v.46h6.06v-.95h-.07c-.25,0-.49-.02-.71-.05-.22-.03-.42-.1-.59-.2-.17-.1-.3-.26-.4-.46-.1-.2-.15-.47-.15-.8v-2.04l1.66-1.23,2.26,3.53c.32.5.6.89.86,1.18.26.29.54.51.85.66.31.15.67.25,1.09.29.42.04.96.06,1.61.06h5.08v-.95h-.07c-.25,0-.49-.02-.71-.05-.22-.03-.42-.1-.59-.2-.17-.1-.3-.26-.4-.46-.1-.2-.15-.47-.15-.8v-4.75c0-.55.05-1.05.17-1.5.11-.45.28-.84.5-1.15s.51-.57.85-.74c.34-.17.75-.26,1.22-.26s.84.07,1.16.2c.32.14.57.34.76.6.19.26.34.59.42.97.09.38.13.82.13,1.31v7.78h3.92v-.95h-.07Z"/>
    <g>
      <path class="cls-1" d="M148.33,31.17c-.73,0-1.38-.08-1.94-.24-.56-.16-1.03-.38-1.41-.67-.38-.29-.66-.64-.85-1.04-.19-.41-.29-.86-.29-1.35s.14-.86.42-1.15c.28-.29.68-.44,1.2-.44.02.49.09.96.22,1.41.12.45.3.85.54,1.19.24.34.55.62.92.83.37.21.83.31,1.35.31,1.01,0,1.8-.25,2.37-.76s.85-1.24.85-2.2c0-.43-.06-.81-.18-1.14-.12-.33-.31-.63-.58-.91-.27-.28-.63-.55-1.07-.8-.44-.26-1-.53-1.66-.81-.7-.3-1.31-.62-1.83-.96-.52-.34-.95-.72-1.3-1.14-.35-.42-.6-.88-.77-1.39-.17-.51-.25-1.09-.25-1.73s.12-1.27.37-1.8c.25-.53.59-.97,1.03-1.34.44-.36.96-.64,1.56-.83.6-.19,1.26-.29,1.97-.29.67,0,1.27.07,1.79.22s.96.34,1.32.58.63.53.82.84c.19.32.28.65.28.99,0,.51-.16.88-.48,1.14-.32.26-.75.38-1.29.38,0-.37-.04-.73-.13-1.08-.08-.36-.23-.67-.42-.95-.2-.28-.46-.51-.78-.68s-.72-.26-1.2-.26c-.43,0-.82.06-1.16.19s-.63.31-.86.54-.41.51-.54.84c-.13.33-.19.7-.19,1.1,0,.47.06.88.18,1.23.12.36.31.68.59.96s.64.56,1.08.81c.45.26,1,.52,1.65.8.66.28,1.25.58,1.77.9.52.31.96.66,1.31,1.05.36.39.63.82.83,1.3.19.48.29,1.02.29,1.62,0,.74-.13,1.41-.39,1.99s-.63,1.08-1.12,1.49c-.48.41-1.07.71-1.75.92-.68.21-1.45.32-2.29.32Z"/>
      <path class="cls-1" d="M166.38,30c-.25,0-.48-.02-.69-.05-.21-.04-.4-.11-.55-.23-.15-.11-.28-.28-.36-.49-.09-.21-.13-.5-.13-.85v-5.33c0-.77-.09-1.43-.26-1.99-.18-.56-.43-1.01-.77-1.37-.34-.36-.75-.62-1.25-.79-.5-.17-1.06-.26-1.7-.26-1.53,0-2.64.68-3.31,2.05h-.05v-3.35c0-3.85-4.15-3.5-4.15-3.5v.51s2.02-.03,2.02,3.13v10.89c0,.35-.05.63-.15.85-.1.21-.23.38-.4.49-.16.11-.36.19-.58.23-.22.04-.46.05-.72.05h-.18v.95h6.06v-.95h-.07c-.24,0-.47-.02-.68-.05h0c-.22-.04-.42-.1-.59-.21-.17-.1-.3-.26-.4-.46-.1-.2-.15-.47-.15-.8v-4.75c0-.55.06-1.05.17-1.5.11-.45.28-.84.5-1.15.22-.32.51-.57.85-.74.34-.17.75-.26,1.22-.26s.84.07,1.15.2c.32.14.57.34.77.6.19.26.34.59.42.97.09.38.13.82.13,1.31v7.78h3.92v-.95h-.07Z"/>
      <path class="cls-1" d="M171.09,19.77c-.43,0-.78.06-1.05.18s-.48.29-.63.51c-.15.22-.25.48-.3.78-.05.3-.08.63-.08.98-.62,0-1.1-.11-1.42-.32-.33-.21-.49-.58-.49-1.1,0-.39.11-.72.32-.99.21-.27.5-.49.87-.67.37-.17.8-.3,1.29-.38.49-.08,1.02-.12,1.57-.12.69,0,1.29.07,1.8.2.51.14.94.36,1.29.67s.6.71.78,1.21c.17.5.26,1.1.26,1.82v5.84c0,.31.03.58.08.78.05.21.13.37.24.49.11.13.26.21.43.26.18.05.39.08.64.08h.07v.95h-3.05l-.35-1.94h-.19c-.23.31-.46.61-.68.87-.22.26-.46.49-.73.68-.26.19-.56.34-.9.45-.33.11-.74.16-1.21.16-.5,0-.96-.07-1.39-.22-.43-.14-.8-.36-1.11-.66-.31-.3-.56-.67-.73-1.12s-.26-.98-.26-1.6c0-1.2.42-2.08,1.28-2.66.85-.58,2.14-.89,3.86-.95l1.87-.07v-1.35c0-.4-.02-.78-.07-1.12-.04-.34-.14-.63-.29-.88-.15-.25-.36-.44-.63-.57-.27-.14-.64-.2-1.11-.2ZM168.36,27.68c0,.7.15,1.23.45,1.58.3.35.76.52,1.38.52.45,0,.87-.07,1.24-.22.37-.15.69-.36.95-.63s.46-.6.6-.99c.14-.39.21-.82.21-1.3v-1.83l-1.44.07c-.64.03-1.17.11-1.6.24-.43.13-.78.31-1.04.54-.26.23-.45.51-.57.85-.11.34-.17.73-.17,1.17Z"/>
      <path class="cls-1" d="M187.96,18.87v.95h-.07c-.22,0-.41.02-.57.07-.16.05-.3.14-.43.27-.13.13-.25.31-.36.54-.11.23-.23.52-.36.88l-3.42,9.46c-.26.73-.51,1.37-.75,1.91-.23.55-.48,1.02-.74,1.41-.26.39-.54.72-.84.97-.3.26-.65.46-1.04.62s-.84.26-1.34.32c-.51.06-1.09.09-1.76.09h-.2v-1.07c.76,0,1.42-.11,1.97-.34.55-.23,1.02-.54,1.42-.94s.73-.86,1-1.4c.27-.54.49-1.12.68-1.75l-4.17-9.85c-.1-.23-.2-.43-.3-.58s-.2-.27-.32-.37-.26-.16-.42-.2c-.16-.04-.35-.06-.57-.06h-.07v-.95h5.41v.95h-.07c-.46,0-.79.09-1.02.26s-.34.45-.34.82c0,.13.01.25.04.38.03.13.07.28.14.45l1.65,4.02c.1.26.21.54.32.84.11.3.22.61.32.9s.19.58.27.84c.08.26.14.49.17.68h.07c.08-.33.19-.73.34-1.21.14-.47.31-.98.5-1.52l1.51-4.39c.07-.18.12-.36.15-.53.03-.17.05-.31.05-.44,0-.39-.12-.67-.37-.85-.25-.18-.62-.26-1.12-.26h-.07v-.95h4.69Z"/>
    </g>
    <g>
      <path class="cls-1" d="M138.48,27.36c-.16,0-.31-.01-.45-.03-.14-.02-.26-.07-.37-.14-.11-.07-.19-.17-.25-.31-.06-.13-.09-.31-.09-.53v-9.13h-2.67v.59h.18c.16,0,.3.01.45.03.14.02.26.07.37.13.11.07.19.17.25.29.06.13.09.29.09.5v7.95c0,1.01-.56.98-.7.98-.66,0-.68-.83-.68-1.04v-4.17c0-.47-.06-.86-.17-1.18-.11-.32-.28-.58-.5-.78s-.5-.34-.84-.43c-.33-.09-.72-.13-1.17-.13-.36,0-.7.03-1.02.08-.32.05-.6.13-.84.25-.24.11-.43.26-.57.43-.14.18-.21.39-.21.64,0,.34.11.58.32.71.21.14.52.21.93.21,0-.23.02-.44.05-.64.03-.2.1-.36.2-.51.1-.14.23-.25.41-.33.17-.08.4-.12.68-.12.3,0,.54.04.72.13.18.09.32.21.41.37.1.16.16.35.19.57.03.22.04.46.04.73v.88l-1.22.04c-1.12.03-1.96.24-2.51.61-.55.38-.83.95-.83,1.73,0,.4.06.75.17,1.04s.27.54.48.73c.2.19.44.34.72.43.28.09.58.14.9.14.3,0,.57-.03.78-.1.22-.07.41-.17.58-.29.17-.12.33-.27.47-.44.14-.17.29-.36.44-.56h.12l.23,1.26h5.08s0-.59,0-.59h-.18ZM133.23,25.16c0,.31-.05.59-.14.84-.09.25-.22.47-.39.64-.17.18-.37.31-.61.41-.24.1-.51.14-.8.14-.41,0-.7-.11-.9-.34-.19-.23-.29-.57-.29-1.03,0-.29.04-.54.11-.76.07-.22.2-.4.37-.55.17-.15.4-.27.68-.35.28-.08.63-.13,1.04-.15l.94-.04v1.19Z"/>
      <path class="cls-1" d="M134.13,15.6c4.2,0,7.61,3.42,7.61,7.61s-3.42,7.61-7.61,7.61-7.61-3.42-7.61-7.61,3.42-7.61,7.61-7.61M134.13,15.1c-4.48,0-8.11,3.63-8.11,8.11s3.63,8.11,8.11,8.11,8.11-3.63,8.11-8.11-3.63-8.11-8.11-8.11h0Z"/>
    </g>
    <path class="cls-1" d="M91.34,22.02v4.5c0,.49.04.93.12,1.31s.21.71.39.97c.18.26.42.46.73.6s.69.2,1.14.2c.5,0,.93-.09,1.28-.26.36-.18.65-.42.88-.74.23-.32.4-.7.51-1.15.11-.45.17-.94.17-1.49v-4.65c0-.35-.05-.64-.15-.85-.1-.22-.23-.38-.4-.5-.17-.11-.36-.19-.58-.23-.22-.04-.46-.06-.72-.06h-.07v-.95h4.03v10.13c0,.33.05.6.15.8s.23.35.4.46c.17.1.37.17.59.2.22.03.46.05.71.05h.07v.46h-3.58l-.3-1.83h-.11c-.23.43-.48.77-.76,1.04-.28.26-.57.47-.88.62-.31.15-.63.25-.97.31-.34.05-.69.08-1.06.08-.6,0-1.12-.08-1.59-.25-.46-.17-.85-.43-1.17-.79-.32-.36-.56-.82-.72-1.38s-.25-1.22-.25-2v-4.92c0-2.3-1.92-2.36-1.92-2.36v-.62c4.45,0,4.05,3.3,4.05,3.3Z"/>
  </g>
  <g>
    <path class="cls-2" d="M25,0C11.19,0,0,11.19,0,25s11.19,25,25,25,25-11.19,25-25S38.81,0,25,0Z"/>
    <path class="cls-1" d="M25,.44C11.44.44.44,11.44.44,25s11,24.56,24.56,24.56,24.56-10.99,24.56-24.56S38.56.44,25,.44ZM25,47.61c-12.49,0-22.61-10.12-22.61-22.61S12.51,2.39,25,2.39s22.61,10.12,22.61,22.61-10.12,22.61-22.61,22.61Z"/>
    <path class="cls-1" d="M46.17,25c0,11.69-9.48,21.17-21.17,21.17S3.83,36.69,3.83,25,13.31,3.83,25,3.83s21.17,9.48,21.17,21.17Z"/>
    <path class="cls-2" d="M9.32,14.27s-.55,6.9-.16,7.62c0,0,4.58-4.09,1.82-9.72,0,0,.88-.55,1.55-1.1.66-.55,1.93-2.04,1.93-2.04,0,0-.61,2.15-.66,4.09.05,1.33.39,6.57-2.87,8.72,0,0,3.2-.39,5.74,2.21,2.04,2.1,4.8,4.09,6.07,4.25.99.06,2.32-.33,1.82-1.71-.33-.77-1.44-.77-2.1-.44,0,0,.33-1.55,1.77-1.44.94.11,2.54,1.21,1.88,3.31-.44,1.38-1.49,2.37-4.2,2.21-1.82-.44-3.64-.77-5.69-3.53-1.66-2.21-3.15-4.64-7.01-3.64,0,0,.83,2.48,2.26,3.37,0,0-2.54,1.71-3.59,3.42,0,0-.11-4.8-.5-7.29-.38-2.54-.72-4.36-.72-4.36,0,0,1.88-2.04,2.43-3.64"/>
    <path class="cls-2" d="M24.65,13.66c3.04-.17,3.8,1.86,4.71,3.76,1,2.11,2.5,3.05,3.91,3.41,1.4.36,2.92-.22,3.45-1.19.81-1.47-.66-2.27-.66-2.27.05,0,.35.3.38,1.04.03,1.06-1.5,1.62-2.44,1.16-.93-.31-2.7-2.21-3.92-4.08-1.52-2.32-3.97-2.5-3.97-2.5,2.76-1.13,3.28-5.11,3.44-6.1.33-1.44,1.1-2.96,1.1-2.96,0,0-1.17.93-1.75,1.24-.58.32-1.32.6-1.32.6,1.23,4.62-2.8,7-2.8,7-.05.19-.13.88-.13.88Z"/>
    <path class="cls-2" d="M15.48,18.57c-.43-1.95.57-3.82,2.23-4.18,1.62-.35,3.27.87,3.74,2.74.14.17.24.38.29.62l.03.17-.13.12s-.04.04-.06.06c.01.86-.25,1.65-.7,2.26.02.12.05.24.09.37.15.46.52.85.99,1.15,1.15-1.18,1.74-3,1.43-4.92-.49-3-2.99-5.09-5.59-4.67-2.6.42-4.31,3.2-3.82,6.19.49,3,2.99,5.09,5.59,4.67.14-.02.28-.06.42-.09-.41-.46-.74-.99-.97-1.58-1.59.2-3.14-1.05-3.55-2.91Z"/>
    <path class="cls-2" d="M29.16,19.4c-.24-1.25-.41-2.51-1.4-3.23.25.95,2.21,5.88-2.44,6.68-1.69.29-4.25-.58-4.68-2.24-.3-1.16.1-2.29.94-2.97-.09-.71-.7-.96-1.3-1.03-.97,1-1.45,2.43-1.16,3.93.5,2.56,3.04,4.35,5.67,3.99,2.64-.36,4.85-2.56,4.35-5.12Z"/>
    <path class="cls-2" d="M29.59,24.67s-.83-3,1.53-3.52c1.62-.5,5.31,1.13,5.96,8.58l-.92-.73s-2.54,3.84-5.12.08c-.95-1.67.26-4.31,2.68-3.04,0,0-2.41.87-.83,2.87.41.27,2.77.44,1.91-3.17-.7-1.56-2.81-4.71-5.21-1.07Z"/>
    <path class="cls-2" d="M25.1,33.62s-1.01-2.94,1.31-3.6c2.15-.98,5.37.81,6.47,8.2l-.97-.68s-2.89,3.61-5.11.39c-1.05-1.6,0-4.31,2.49-3.2,0,0-2.35,1.01-.65,2.91.8.61,3.21-.05,1.72-3.28-.79-1.51-3.93-4.85-5.26-.75Z"/>
    <path class="cls-2" d="M36.27,21.23s2.12.3,2.44,5c.23,3.35,2.03,5.32,4.52,4.13,1.71-.82.53-3.22-.62-3.05,0,0,1.28,2.01-.66,2.1-1.94.04-1.47-3.54-1.46-4.37.01-.83-.2-5.67-4.23-3.81Z"/>
    <path class="cls-2" d="M39.51,30.18s-2.11,2.19-1.75,6.88c.26,3.35-1.58,5.93-4.22,5.12-1.81-.56-1.41-3.21-.25-3.21,0,0-.98,2.17.95,1.98,1.93-.24,1.55-3.55,1.53-4.38-.06-2.35-.23-6.68,3.74-6.39Z"/>
    <path class="cls-2" d="M14.16,28.96s-2.18-1.93-4.29-.12c-1.3,1.11-1.42,3.16,1.62,5.14,4.57,2.45,5.26,3.12,4.94,4.62-.32,1.5-3.57,2.64-4.55,1.66,0,0,2.41,1.92,4.65.95,3.07-1.33,2.61-4.34.84-5.77-1.77-1.43-7.22-3.4-6.17-5.65.34-.71.96-1.05,2.95-.83Z"/>
    <path class="cls-2" d="M37.64,10.09c-1.36-2.55-4.27-3.14-4.51.86-.56-.72-1.43-2.17-1.59-3.48-.1-.75.05-1.63.54-2.02-.29.15-1.98.54-1.93,2.53,0,0,.1,1.33,1.67,3.69,1.79,2.69,3.13,5.64,1.8,7.36,0,0,2.81-1.51,1.64-4.43-.36-.9-1.11-2.03-1.27-2.5.21-1.58,1.21-2.78,3-.68,1.62,2.31.83,3.75.48,4.75.77-.42,1.77-3.09.18-6.07Z"/>
    <path class="cls-2" d="M24.8,35.09c-1.36-2.55-4.55-3.07-4.8.93-.56-.72-1.14-2.25-1.31-3.55-.09-.75.05-1.63.54-2.02-.29.15-1.98.54-1.93,2.53,0,0,.1,1.33,1.67,3.69,1.79,2.69,3.13,5.64,1.8,7.36,0,0,3.4-1.21,2.23-4.14-.36-.9-1.69-2.33-1.86-2.8.21-1.58,1.21-2.78,3-.68,1.14,1.96.83,3.75.48,4.75.77-.42,1.77-3.09.18-6.07Z"/>
    <path class="cls-2" d="M32.46,31.26s1.4,1.7,1.15,3.19c-.48,2.89.73,3.58,2.47,3.2,0,0-1.42-.83-1.2-2.2.44-2.79.25-4.84-2.41-4.19Z"/>
    <path class="cls-2" d="M16.56,6.95s5.81-.1,7.75,7.1c1.04,2.68.51,6.35-.15,7.03l2.49.71s1-4.18-1.37-10.63c-2.02-3.24-4.45-7.15-8.71-4.21Z"/>
  </g>
</svg>