<?xml version="1.0" encoding="UTF-8"?>
<svg xmlns="http://www.w3.org/2000/svg" version="1.1" viewBox="0 0 56 56">
  <defs>
    <style>
      .cls-1 {
        fill: #fee2e4;
      }

      .cls-2 {
        fill: none;
        stroke: #ba1b24;
        stroke-linecap: round;
        stroke-linejoin: round;
        stroke-width: 2px;
      }
    </style>
  </defs>
  <!-- Generator: Adobe Illustrator 28.6.0, SVG Export Plug-In . SVG Version: 1.2.0 Build 709)  -->
  <g>
    <g id="Layer_1">
      <circle class="cls-1" cx="28" cy="28" r="28"/>
      <path class="cls-2" d="M41.5,21.2v13.5c0,.9-.4,1.8-1,2.4-.6.6-1.5,1-2.4,1h-20.3c-.9,0-1.8-.4-2.4-1-.6-.6-1-1.5-1-2.4v-13.5"/>
      <path class="cls-2" d="M41.5,21.2c0-.9-.4-1.8-1-2.4-.6-.6-1.5-1-2.4-1h-20.3c-.9,0-1.8.4-2.4,1-.6.6-1,1.5-1,2.4l11.7,7.3c.5.3,1.2.5,1.8.5s1.3-.2,1.8-.5l11.7-7.3Z"/>
    </g>
  </g>
</svg>