<?xml version="1.0" encoding="UTF-8"?>
<svg id="Layer_1" xmlns="http://www.w3.org/2000/svg" viewBox="0 0 35 35">
  <defs>
    <style>
      .cls-1 {
        fill: #fff;
      }

      .cls-2 {
        fill: #b51e3a;
      }

      .cls-3 {
        fill: #e71c38;
      }
    </style>
  </defs>
  <circle class="cls-3" cx="17.5" cy="17.5" r="17.5"/>
  <g>
    <g>
      <path d="M29.81,17.37c-.21-.11-.43-.17-.66-.17-.25,0-.51.07-.73.21-.16.1-.32.16-.49.17,0-.07-.01-.17-.01-.28v-2.33h.95c.76,0,1.37-.61,1.37-1.37v-1.58c0-.76-.61-1.37-1.37-1.37h-.95v-1.07c0-.45-.22-.87-.59-1.12-.23-.16-.51-.25-.78-.25-.16,0-.32.03-.47.08l-1.97.72c-.54.2-.9.71-.9,1.28v.41c-.5.15-.88.57-.96,1.09-.01-.01-.03-.03-.04-.04-.86-.84-2.13-1.27-3.79-1.27-1.14,0-2.15.21-3.01.62-.6.29-.9.96-.73,1.6l.09.32c-.22-.38-.49-.73-.82-1.05-1-.99-2.32-1.49-3.91-1.49s-2.84.55-3.93,1.64c-1.08,1.09-1.63,2.5-1.63,4.2s.51,3.1,1.52,4.12c1.01,1.02,2.37,1.53,4.02,1.53s3.03-.39,3.97-1.15c.19-.15.32-.34.41-.55.19.28.4.51.6.68.77.68,1.8,1.02,3.04,1.02.66,0,1.31-.13,1.92-.39.06-.03.13-.05.19-.08.43.31.92.47,1.44.47.4,0,.77-.06,1.11-.17.53-.17.97-.56,1.3-1.14.01-.02.02-.05.04-.08.07.08.14.17.21.25.72.76,1.7,1.14,2.93,1.14,1.01,0,1.79-.1,2.4-.31.55-.19.92-.71.92-1.29v-1.81c0-.5-.27-.96-.71-1.2Z"/>
      <path class="cls-1" d="M13.94,16.84h-6.03c.04.67.27,1.19.69,1.57.43.37,1,.56,1.72.56.9,0,1.58-.23,2.05-.7l.76,1.5c-.69.56-1.73.84-3.1.84-1.29,0-2.3-.38-3.05-1.13-.75-.75-1.12-1.81-1.12-3.15s.41-2.41,1.23-3.23c.82-.82,1.81-1.24,2.96-1.24,1.22,0,2.21.37,2.95,1.09.74.73,1.11,1.66,1.11,2.79,0,.24-.06.61-.17,1.09ZM7.98,15.36h4.14c-.14-1.23-.82-1.85-2.05-1.85-1.12,0-1.82.62-2.1,1.85Z"/>
      <path class="cls-1" d="M20.38,19.62c-.18.29-.49.53-.93.72s-.91.28-1.39.28c-.91,0-1.62-.23-2.14-.68-.52-.45-.78-1.1-.78-1.93,0-.98.37-1.74,1.1-2.29.73-.55,1.77-.83,3.12-.83.23,0,.5.04.82.12,0-.99-.63-1.49-1.88-1.49-.74,0-1.36.12-1.86.37l-.43-1.53c.68-.33,1.48-.49,2.42-.49,1.29,0,2.23.29,2.83.88.6.59.9,1.7.9,3.33v1.8c0,1.12.23,1.83.68,2.12-.16.28-.34.46-.54.52-.2.07-.43.1-.69.1-.28,0-.54-.11-.76-.32s-.38-.44-.46-.69ZM20.19,16.49c-.34-.07-.59-.1-.76-.1-1.55,0-2.33.51-2.33,1.53,0,.76.44,1.13,1.32,1.13,1.18,0,1.77-.59,1.77-1.77v-.79Z"/>
      <path class="cls-1" d="M24.57,13.61h-.98v-1.58h.98v-1.72l1.97-.72v2.44h2.32v1.58h-2.32v3.69c0,.6.09,1.03.28,1.28.19.25.52.37.99.37s.91-.13,1.32-.39v1.81c-.46.16-1.11.24-1.95.24s-1.49-.24-1.94-.71c-.45-.48-.68-1.15-.68-2.03v-4.27Z"/>
    </g>
    <g>
      <path class="cls-2" d="M25.58,19.25c-.17-.2-.42-.31-.68-.31-.04,0-.07,0-.11,0l-.97.12c-.38.05-.7.33-.78.7l-.12.52-.27-.5c-.16-.3-.47-.48-.8-.48-.04,0-.07,0-.11,0l-.97.12c-.14.02-.27.06-.38.14-.16-.02-.33-.04-.49-.04-.14,0-.28,0-.43.03-.61.07-1.11.29-1.5.65-.08.08-.15.16-.22.24-.4-.3-.92-.46-1.53-.46-.16,0-.33.01-.51.03-.58.07-1.09.24-1.51.51-.1.06-.18.14-.24.22-.38-.18-.8-.28-1.25-.28-.14,0-.28,0-.42.03-.78.09-1.46.47-1.95,1.1-.5.63-.7,1.4-.59,2.28.11.89.46,1.58,1.05,2.05.49.39,1.08.58,1.75.58.14,0,.29,0,.44-.03.76-.09,1.36-.32,1.8-.68.32.16.68.25,1.08.25.12,0,.25,0,.38-.02.34-.04.66-.14.96-.31.18.08.37.12.56.12.06,0,.11,0,.17-.01.22-.03.42-.08.6-.16.1-.05.19-.11.27-.18.12.03.24.06.34.08.12.02.24.03.38.03.16,0,.32-.01.51-.03.37-.04.69-.13.98-.27l.08.7c.06.46.45.81.91.81.04,0,.07,0,.11,0,.59-.07,1.1-.26,1.54-.56.49-.35.81-.77.93-1.27l1.21-4.88c.07-.29,0-.6-.2-.82Z"/>
      <path class="cls-1" d="M14.53,23.55l-2.87.34c.06.32.2.55.42.71.22.15.51.21.85.17.43-.05.74-.2.94-.45l.45.67c-.3.31-.78.5-1.43.58-.61.07-1.12-.05-1.52-.37-.4-.32-.64-.8-.71-1.44s.06-1.17.4-1.61.79-.69,1.34-.76c.58-.07,1.07.05,1.47.36.39.31.62.73.69,1.27.01.12,0,.29-.02.53ZM11.61,23.18l1.97-.23c-.13-.58-.5-.84-1.08-.77-.54.06-.83.4-.89,1Z"/>
      <path class="cls-1" d="M17.18,24.51c-.07.15-.2.28-.4.4s-.42.18-.65.21c-.43.05-.79-.02-1.06-.2-.27-.19-.43-.48-.48-.88-.06-.47.08-.85.39-1.15.32-.3.8-.49,1.44-.57.11-.01.24,0,.4,0-.06-.47-.38-.67-.98-.6-.35.04-.64.14-.87.28l-.29-.7c.3-.19.68-.32,1.12-.37.61-.07,1.08.01,1.4.26s.52.76.62,1.54l.1.86c.06.54.21.86.44.97-.06.14-.14.24-.23.28-.09.04-.2.07-.32.09-.14.02-.26-.02-.38-.11s-.2-.19-.26-.3ZM16.92,23.03c-.16-.01-.29-.02-.37,0-.74.09-1.08.37-1.02.86.04.36.27.52.69.47.56-.07.81-.38.74-.94l-.04-.38Z"/>
      <path class="cls-1" d="M18.62,24.46l.25-.79c.31.19.64.26.99.22s.53-.2.5-.46c-.02-.15-.09-.27-.21-.36-.12-.08-.35-.17-.68-.27-.73-.21-1.12-.57-1.18-1.09-.04-.35.06-.63.3-.86.24-.23.57-.36.98-.41s.82,0,1.21.14l-.18.76c-.23-.15-.52-.2-.89-.16-.33.04-.48.19-.45.45.01.1.08.19.19.26.12.07.36.15.73.25.37.1.64.24.82.41.18.18.28.41.32.69.04.37-.06.68-.31.93-.25.25-.61.4-1.09.45-.27.03-.48.04-.65.01-.17-.02-.38-.09-.65-.19Z"/>
      <path class="cls-1" d="M23.68,24.73c-.07.28-.26.53-.56.74-.31.22-.68.35-1.12.4l-.1-.83c.72-.09,1.06-.31,1.02-.67-.03-.24-.17-.6-.43-1.07l-1.63-2.97.97-.12,1.43,2.65.66-2.9.97-.12-1.21,4.88Z"/>
    </g>
  </g>
</svg>