<?xml version="1.0" encoding="UTF-8"?>
<svg id="Layer_1" xmlns="http://www.w3.org/2000/svg" viewBox="0 0 114 114">
  <defs>
    <style>
      .cls-1 {
        fill: #ba1b24;
      }

      .cls-2 {
        fill: #fee2e4;
      }
    </style>
  </defs>
  <circle class="cls-2" cx="57" cy="57" r="57"/>
  <g>
    <path class="cls-1" d="M66.85,27.36c.27,0,.54,0,.81,0,.09.03.18.08.27.08,2.13.18,3.92,1.07,5.44,2.55.14.13.44.2.64.16,5.81-1.17,11.1,3.94,10.08,9.78-.08.43-.06.72.28,1.06,3.93,4.02,2.62,10.89-2.46,13.12-.43.19-.84.46-1.18.79-10.47,10.34-20.94,20.69-31.39,31.05-.54.53-1.13.74-1.88.68-2.97-.21-5.77-1.03-8.4-2.39-6.07-3.14-9.95-7.99-11.32-14.75-.17-.86-.29-1.74-.43-2.61,0-.42,0-.85,0-1.27.37-.46.71-.95,1.12-1.37,10.35-10.26,20.71-20.5,31.06-30.76.24-.24.42-.59.53-.92.81-2.51,2.47-4.13,5-4.85.59-.17,1.2-.24,1.81-.35ZM61.35,36.57c-9.87,9.77-19.69,19.48-29.58,29.27.64.22,1.18.43,1.73.58,3.28.88,6.6.88,9.93.35,3.76-.6,7.35-1.77,10.38-4.12,6.65-5.16,9.68-12.02,9.17-20.41-.12-1.95-.7-3.82-1.64-5.66ZM49.73,80.68c9.39-9.29,18.67-18.48,28.03-27.73-.6-.26-1.09-.48-1.59-.67-3.28-1.25-6.64-1.19-10.04-.63-.54.09-.75.31-.93.82-2.88,8.3-8.35,14.01-16.81,16.71-.67.21-1.35.39-2.08.6,2.2,3.3,3.12,6.95,3.42,10.92ZM66.6,45.13s.09.07.13.11c.11-.16.21-.33.34-.47,1.57-1.6,3.15-3.19,4.71-4.79.42-.42.89-.68,1.49-.62.71.07,1.24.43,1.48,1.12.25.7.1,1.33-.42,1.86-1.64,1.67-3.28,3.33-4.92,4.99-.14.14-.26.29-.35.39,1.61.13,3.19.26,4.76.36.18.01.4-.11.54-.24.47-.43.89-.92,1.36-1.34.53-.48,1.16-.6,1.83-.33.65.27,1.07.78,1.04,1.46-.03.54-.29,1.07-.45,1.59.67.39,1.47.82,2.23,1.32.33.22.55.22.87,0,2.59-1.67,2.62-5.86.03-7.69-1.13-.8-1.3-1.34-.85-2.6.7-1.99.34-3.79-1.14-5.29-1.5-1.51-3.32-1.87-5.33-1.16-1.21.43-1.8.27-2.55-.76-1-1.37-2.35-2.08-4.03-2.17-1.64-.09-3.18.76-3.76,2.09-.08.18-.15.45-.07.59.53.93,1.11,1.83,1.68,2.74.03-.03.09-.08.15-.13.8-.66,1.79-.63,2.45.06.66.69.62,1.74-.1,2.5-.19.2-.36.42-.57.57-.75.54-.93,1.21-.78,2.14.2,1.2.17,2.45.23,3.67ZM46.29,82.97c0-.27.01-.45,0-.64-.1-1.27-.14-2.55-.33-3.8-.43-2.82-1.38-5.45-3.2-7.7-.24-.3-.49-.38-.88-.38-2.06,0-4.13.05-6.18-.11-1.44-.11-2.86-.52-4.34-.81.69,3,2.01,5.71,4.18,7.97,2.92,3.05,6.58,4.67,10.75,5.48Z"/>
    <path class="cls-1" d="M52.64,55.28c1.02,0,1.8.78,1.79,1.79,0,.94-.82,1.76-1.77,1.78-.97.02-1.81-.81-1.81-1.79,0-1.03.76-1.78,1.79-1.78Z"/>
    <path class="cls-1" d="M57.94,49.05c.01.99-.8,1.82-1.78,1.81-.94,0-1.78-.82-1.8-1.76-.02-1.01.76-1.8,1.77-1.81,1.04-.01,1.79.73,1.81,1.76Z"/>
    <path class="cls-1" d="M46.46,60.57c0,.96-.81,1.76-1.77,1.78-.97.01-1.83-.84-1.82-1.8,0-1.01.8-1.79,1.81-1.78,1.02,0,1.78.77,1.77,1.8Z"/>
  </g>
</svg>