<?xml version="1.0" encoding="UTF-8"?>
<svg id="Layer_1" xmlns="http://www.w3.org/2000/svg" viewBox="0 0 114 114">
  <defs>
    <style>
      .cls-1 {
        fill: #ba1b24;
      }

      .cls-2 {
        fill: #fee2e4;
      }

      .cls-3 {
        fill: #fff;
      }

      .cls-4 {
        fill: none;
        stroke: #ee3747;
        stroke-miterlimit: 10;
        stroke-width: 1.22px;
      }

      .cls-5 {
        fill: #ec1c24;
      }
    </style>
  </defs>
  <circle class="cls-2" cx="57" cy="57" r="57"/>
  <g>
    <path class="cls-1" d="M71.12,87.44h-28.28c-.15-.05-.29-.1-.44-.15-1.63-.53-2.65-1.61-2.99-3.29-.12-.6-.17-1.21-.25-1.82-.61-4.61-1.22-9.22-1.83-13.83-.66-4.96-1.32-9.93-1.97-14.89-.19-1.46-.39-2.93-.59-4.42-.37,0-.69,0-1,0-1.79-.02-3.05-1.21-3.08-3-.04-1.92-.04-3.84,0-5.76.03-1.82,1.3-3,3.13-3.01.59,0,1.17,0,1.79,0,0-2.2,0-4.32,0-6.43.01-2.63,2.08-4.49,4.7-4.24,4.16.39,8.31.79,12.47,1.19,7.21.7,14.42,1.4,21.63,2.09,2.63.25,4.1,1.87,4.1,4.51,0,.94,0,1.89,0,2.88.7,0,1.33-.02,1.96,0,1.3.04,2.44.97,2.76,2.22.06.25.1.5.15.74v5.83c-.03.11-.07.22-.09.33-.3,1.69-1.41,2.63-3.13,2.64-.31,0-.62,0-.92,0-.04.23-.08.38-.1.54-.81,6.1-1.61,12.2-2.42,18.3-.71,5.36-1.41,10.71-2.15,16.06-.19,1.38-.98,2.4-2.23,3.04-.38.2-.8.31-1.21.46ZM38.36,49.07c.37,2.76.72,5.49,1.09,8.22.61,4.63,1.23,9.26,1.84,13.89.53,3.98,1.05,7.97,1.57,11.95.07.52.32.75.87.75,8.83,0,17.66,0,26.5,0,.54,0,.8-.23.87-.75.56-4.28,1.13-8.56,1.69-12.84.61-4.63,1.23-9.26,1.84-13.89.32-2.43.64-4.86.97-7.33h-37.24ZM34.24,45.42h45.45v-4.54h-45.45v4.54ZM74.92,37.24c0-1.02-.02-1.97,0-2.92.02-.6-.22-.85-.82-.9-4.1-.38-8.2-.77-12.29-1.17-7.23-.7-14.46-1.4-21.69-2.09-.77-.07-.98.11-.98.87,0,1.92,0,3.84,0,5.76,0,.15.03.3.04.45h35.73Z"/>
    <g>
      <path class="cls-5" d="M57.04,55.53c-6.04,0-10.94,4.9-10.94,10.94s4.9,10.94,10.94,10.94,10.94-4.9,10.94-10.94-4.9-10.94-10.94-10.94M57.04,76.54c-5.56,0-10.07-4.51-10.07-10.07s4.51-10.07,10.07-10.07,10.07,4.51,10.07,10.07-4.51,10.07-10.07,10.07"/>
      <path class="cls-5" d="M66.47,66.47c0,5.21-4.22,9.43-9.43,9.43s-9.43-4.22-9.43-9.43,4.22-9.43,9.43-9.43,9.43,4.22,9.43,9.43"/>
      <path class="cls-3" d="M50.06,61.69s-.25,3.07-.07,3.39c0,0,2.04-1.82.81-4.33,0,0,.39-.25.69-.49.29-.25.86-.91.86-.91,0,0-.27.96-.3,1.82.02.59.17,2.93-1.28,3.89,0,0,1.43-.17,2.56.98.91.93,2.14,1.82,2.71,1.89.44.02,1.03-.15.81-.76-.15-.34-.64-.34-.93-.2,0,0,.15-.69.79-.64.42.05,1.13.54.84,1.48-.2.61-.66,1.06-1.87.98-.81-.2-1.62-.34-2.53-1.57-.74-.98-1.4-2.07-3.12-1.62,0,0,.37,1.11,1.01,1.5,0,0-1.13.76-1.6,1.53,0,0-.05-2.14-.22-3.25-.17-1.13-.32-1.94-.32-1.94,0,0,.84-.91,1.08-1.62"/>
      <path class="cls-3" d="M56.89,61.42c1.35-.08,1.69.83,2.1,1.68.45.94,1.12,1.36,1.74,1.52.63.16,1.3-.1,1.54-.53.36-.66-.29-1.01-.29-1.01.02,0,.16.13.17.46.01.47-.67.72-1.08.52-.41-.14-1.2-.98-1.74-1.82-.68-1.03-1.77-1.11-1.77-1.11,1.23-.5,1.46-2.27,1.53-2.72.15-.64.49-1.32.49-1.32,0,0-.52.41-.78.55-.26.14-.59.27-.59.27.55,2.06-1.25,3.12-1.25,3.12-.02.09-.06.39-.06.39"/>
      <path class="cls-3" d="M56.33,62.89c-.22-1.34-1.33-2.27-2.49-2.08-1.16.19-1.92,1.42-1.7,2.76.22,1.34,1.33,2.27,2.49,2.08,1.16-.19,1.92-1.42,1.7-2.76M54.48,64.88c-.74.16-1.49-.41-1.68-1.28-.19-.87.26-1.7,1-1.86.74-.16,1.49.41,1.68,1.28.19.87-.26,1.7-1,1.86"/>
      <path class="cls-4" d="M58.86,63.84c-.14-.55-.25-1.11-.71-1.4.14.42,1.14,2.55-.9,3.04-.74.18-1.9-.14-2.14-.87-.17-.51-.02-1.02.34-1.35-.06-.31-.34-.41-.6-.42-.4.47-.58,1.12-.41,1.78.29,1.13,1.47,1.85,2.63,1.62,1.16-.23,2.08-1.27,1.79-2.4Z"/>
      <path class="cls-3" d="M58.9,63.98c-.11-.56-.18-1.12-.62-1.44.11.42.98,2.62-1.08,2.98-.75.13-1.89-.26-2.08-1-.13-.52.04-1.02.42-1.32-.04-.32-.31-.43-.58-.46-.43.45-.64,1.08-.52,1.75.22,1.14,1.35,1.94,2.53,1.78,1.18-.16,2.16-1.14,1.94-2.28"/>
      <path class="cls-3" d="M59.08,66.32s-.37-1.34.68-1.57c.72-.22,2.37.51,2.65,3.82l-.41-.33s-1.13,1.71-2.28.04c-.42-.74.11-1.92,1.19-1.35,0,0-1.07.39-.37,1.28.18.12,1.23.2.85-1.41-.31-.69-1.25-2.1-2.32-.48"/>
      <path class="cls-3" d="M57.08,70.31s-.45-1.31.58-1.61c.96-.44,2.39.36,2.88,3.65l-.43-.3s-1.29,1.61-2.27.18c-.47-.71,0-1.92,1.11-1.42,0,0-1.05.45-.29,1.3.36.27,1.43-.02.76-1.46-.35-.67-1.75-2.16-2.34-.33"/>
      <path class="cls-3" d="M62.06,64.79s.94.14,1.09,2.23c.1,1.49.91,2.37,2.01,1.84.76-.36.24-1.44-.28-1.36,0,0,.57.89-.29.93-.86.02-.66-1.57-.65-1.95,0-.37-.09-2.52-1.88-1.7"/>
      <path class="cls-3" d="M63.5,68.78s-.94.98-.78,3.06c.12,1.49-.7,2.64-1.88,2.28-.81-.25-.63-1.43-.11-1.43,0,0-.44.97.42.88.86-.11.69-1.58.68-1.95-.03-1.05-.1-2.98,1.66-2.85"/>
      <path class="cls-3" d="M52.21,68.24s-.97-.86-1.91-.05c-.58.49-.63,1.41.72,2.29,2.04,1.09,2.34,1.39,2.2,2.06-.14.67-1.59,1.18-2.03.74,0,0,1.07.85,2.07.42,1.37-.59,1.16-1.93.37-2.57-.79-.64-3.22-1.51-2.75-2.52.15-.32.43-.47,1.31-.37"/>
      <path class="cls-3" d="M62.67,59.83c-.61-1.14-1.9-1.4-2.01.38-.25-.32-.64-.97-.71-1.55-.04-.34.02-.72.24-.9-.13.07-.88.24-.86,1.13,0,0,.04.59.75,1.64.8,1.2,1.39,2.51.8,3.28,0,0,1.25-.67.73-1.97-.16-.4-.49-.91-.57-1.11.09-.7.54-1.24,1.34-.3.72,1.03.37,1.67.21,2.12.34-.19.79-1.38.08-2.7"/>
      <path class="cls-3" d="M56.95,70.96c-.61-1.14-2.03-1.37-2.14.41-.25-.32-.51-1-.58-1.58-.04-.34.02-.73.24-.9-.13.07-.88.24-.86,1.13,0,0,.04.59.74,1.64.8,1.2,1.39,2.51.8,3.28,0,0,1.52-.54.99-1.84-.16-.4-.75-1.04-.83-1.25.09-.7.54-1.24,1.34-.3.51.87.37,1.67.21,2.12.34-.19.79-1.38.08-2.7"/>
      <path class="cls-3" d="M60.36,69.26s.62.76.51,1.42c-.21,1.29.33,1.59,1.1,1.42,0,0-.63-.37-.54-.98.2-1.24.11-2.16-1.07-1.87"/>
      <path class="cls-3" d="M53.28,58.43s2.59-.04,3.45,3.16c.46,1.19.23,2.83-.07,3.13l1.11.32s.45-1.86-.61-4.74c-.9-1.44-1.98-3.18-3.88-1.87"/>
    </g>
  </g>
</svg>