<?xml version="1.0" encoding="UTF-8"?>
<svg id="Layer_1" xmlns="http://www.w3.org/2000/svg" viewBox="0 0 114 114">
  <defs>
    <style>
      .cls-1 {
        fill: #ba1b24;
      }

      .cls-2 {
        fill: #fee2e4;
      }
    </style>
  </defs>
  <circle class="cls-2" cx="57" cy="57" r="57"/>
  <g>
    <path class="cls-1" d="M26.09,65.09c.37-.92.6-1.94,1.13-2.75,1.14-1.71,2.88-2.44,4.92-2.44,3.24,0,6.48,0,9.72,0,13.3,0,26.6,0,39.9,0,2.51,0,4.41,1.05,5.57,3.32,1.71,3.33-.61,7.73-4.31,8.17-.56.07-1.12.1-1.68.1-16.36,0-32.71,0-49.07,0-2.54,0-4.46-1.05-5.6-3.36-.28-.57-.39-1.22-.57-1.83,0-.4,0-.8,0-1.21ZM57.06,63.76c-8.21,0-16.42,0-24.62,0-.24,0-.48,0-.72.01-.92.09-1.65.82-1.74,1.72-.09.91.46,1.76,1.37,2.02.3.09.63.1.95.1,16.48,0,32.95,0,49.43,0,.18,0,.36,0,.54-.01.95-.08,1.7-.82,1.78-1.76.08-.92-.49-1.75-1.4-2-.3-.08-.63-.09-.95-.09-8.21,0-16.42,0-24.62,0Z"/>
    <path class="cls-1" d="M58.57,27.06c.98.11,1.95.21,2.93.34,3.54.45,6.91,1.48,10.11,3.04,3.29,1.6,6.23,3.69,8.6,6.5,2.23,2.65,3.71,5.63,3.84,9.16.05,1.37-.71,2.2-2.1,2.2-16.62,0-33.24,0-49.86,0-1.38,0-2.16-.82-2.12-2.2.07-2.62.92-5.01,2.35-7.18,2.58-3.91,6.18-6.6,10.35-8.61,2.9-1.4,5.95-2.31,9.12-2.83.97-.16,1.96-.22,2.94-.32.24-.03.47-.07.71-.1,1.05,0,2.09,0,3.14,0ZM80.04,44.43c-.44-.99-.76-1.9-1.22-2.73-1.58-2.83-3.92-4.95-6.66-6.58-6.95-4.15-14.42-5.15-22.26-3.31-5.08,1.19-9.56,3.54-13.05,7.52-1.3,1.48-2.28,3.14-2.76,5.11h45.95Z"/>
    <path class="cls-1" d="M26.09,51.69c.74-1.33,1.36-1.61,2.91-1.37,1.32.21,2.42.83,3.36,1.76.5.5.98,1.02,1.51,1.48.86.74,1.94.74,2.8,0,.5-.43.95-.92,1.42-1.39,2.58-2.57,6.25-2.58,8.82-.01.38.38.76.78,1.15,1.16,1.11,1.07,2.29,1.07,3.4,0,.4-.39.79-.81,1.19-1.2,2.51-2.49,6.19-2.49,8.69,0,.49.48.95.99,1.46,1.44.87.77,1.97.78,2.85.02.52-.44.98-.95,1.47-1.43,2.53-2.51,6.21-2.51,8.74,0,.4.4.78.81,1.19,1.2,1.1,1.06,2.29,1.06,3.4,0,.43-.42.84-.86,1.27-1.29,1.14-1.12,2.5-1.73,4.1-1.77,1.14-.03,2.03.73,2.09,1.8.07,1.07-.71,1.97-1.85,2.04-.78.05-1.36.4-1.9.92-.75.72-1.47,1.52-2.33,2.08-2.3,1.49-5.33,1.08-7.37-.9-.43-.42-.84-.87-1.27-1.29-1.11-1.07-2.3-1.06-3.4,0-.43.42-.84.87-1.27,1.29-2.44,2.37-6.07,2.38-8.52.02-.45-.43-.87-.9-1.32-1.33-1.09-1.04-2.28-1.03-3.36,0-.45.43-.87.89-1.32,1.33-2.43,2.34-6.04,2.34-8.47,0-.46-.45-.89-.93-1.36-1.37-1.07-1.01-2.25-1-3.31.02-.6.57-1.14,1.2-1.77,1.72-2.24,1.87-5.48,1.83-7.7-.07-.55-.47-1.04-1-1.55-1.52-.53-.54-1.13-.88-1.9-.91-.94-.03-1.45-.66-1.83-1.44v-.97Z"/>
    <path class="cls-1" d="M57,73.42c8.23,0,16.46,0,24.68,0,1.65,0,2.37.7,2.36,2.34-.02,1.55.05,3.11-.13,4.64-.43,3.55-3.55,6.35-7.14,6.53-.22.01-.44.02-.66.02-12.73,0-25.47,0-38.2,0-3.85,0-6.94-2.39-7.73-6.07-.24-1.1-.17-2.28-.21-3.42-.03-.66-.01-1.33,0-1.99.02-1.24.81-2.03,2.05-2.03,3.28,0,6.56,0,9.84,0,5.05,0,10.1,0,15.15,0ZM80.17,77.32h-46.35c0,.48,0,.92,0,1.36,0,2.85,1.54,4.39,4.41,4.39,12.51,0,25.03,0,37.54,0,.24,0,.48,0,.72-.01,2.02-.14,3.53-1.63,3.66-3.65.05-.68,0-1.36,0-2.09Z"/>
    <path class="cls-1" d="M60.86,34.77c.01,1.05-.84,1.93-1.89,1.95-1.07.02-1.97-.86-1.96-1.94,0-1.05.87-1.91,1.92-1.92,1.05,0,1.92.86,1.93,1.91Z"/>
    <path class="cls-1" d="M49.27,38.68c-.02,1.05-.89,1.91-1.94,1.9-1.07,0-1.95-.91-1.91-1.99.03-1.05.92-1.89,1.97-1.87,1.05.02,1.9.91,1.88,1.96Z"/>
    <path class="cls-1" d="M70.52,40.56c.01,1.05-.84,1.93-1.89,1.95-1.07.02-1.97-.86-1.97-1.93,0-1.05.87-1.92,1.92-1.92,1.05,0,1.92.85,1.94,1.9Z"/>
  </g>
</svg>