<?xml version="1.0" encoding="UTF-8"?>
<svg id="Layer_1" xmlns="http://www.w3.org/2000/svg" viewBox="0 0 114 114">
  <defs>
    <style>
      .cls-1 {
        fill: #ba1b24;
      }

      .cls-2 {
        fill: #fee2e4;
      }
    </style>
  </defs>
  <circle class="cls-2" cx="57" cy="57" r="57"/>
  <g>
    <path class="cls-1" d="M87,71.64v2.46c-.04.17-.09.34-.11.51-.25,2.06-.94,3.97-2.03,5.74-4.25,6.95-13.82,8.76-20.3,3.84-.2-.15-.4-.29-.65-.47-.09.12-.16.23-.23.31-1.79,1.98-4.04,2.94-6.7,2.95-4.69.01-9.37.03-14.06-.02-.98-.01-2-.17-2.92-.48-3.68-1.24-5.95-4.53-5.95-8.51,0-8.67,0-17.34,0-26.01,0-2.99-.01-5.97,0-8.96.02-2.97,1.95-5.13,4.89-5.43.69-.07,1.4-.01,2.14-.01-.04-.3-.07-.51-.1-.72-.02-.13-.04-.27-.08-.4-.62-2.2-2.12-3.41-4.28-3.94-2.71-.65-5.41-1.34-8.12-2.02-.86-.21-1.37-.78-1.47-1.55-.09-.76.31-1.42,1.1-1.82.06-.03.12-.08.18-.13.31,0,.62,0,.94,0,.24.08.47.17.71.23,2.65.67,5.31,1.29,7.94,2,3.52.95,5.68,3.26,6.52,6.8.12.48.15.99.22,1.47h7.87c-.75-.72-1.4-1.3-2.01-1.93-.86-.87-.83-1.9.06-2.72,3.83-3.55,8.31-4.72,13.37-3.5,5.6,1.35,10,6.59,10.41,12.34.29,4.11-.9,7.74-3.71,10.8-1.08,1.18-1.99,1.21-3.13.07-.49-.49-.97-.99-1.53-1.55v9.63c2.25-1.33,4.63-1.9,7.15-1.92.07-.25.12-.46.18-.66,1.02-3.61,4.38-6.24,8.11-6.35,1.2-.04,2.02.62,2.08,1.66.06,1.03-.7,1.79-1.89,1.86-1.1.06-2.11.38-2.99,1.05-.99.75-1.67,1.7-1.95,2.94.19.07.32.12.45.16,4.83,1.64,7.95,4.92,9.4,9.8.24.8.34,1.63.51,2.45ZM37.58,59.24c-.01.09-.03.14-.03.2,0,6.25-.03,12.49.01,18.74.02,3.03,2.3,5.27,5.34,5.29,4.76.03,9.53.02,14.29,0,1.54,0,2.83-.64,3.88-1.77.35-.37.4-.65.09-1.14-2.36-3.7-2.9-7.67-1.6-11.87.27-.86.64-1.69.98-2.57-.11-.03-.2-.06-.29-.07-3.6-.25-6.71-1.68-9.37-4.07-2.29-2.05-4.9-3.29-7.98-3.51-1.83-.13-3.61.1-5.32.79ZM44.6,55.09c.54.12,1.03.22,1.53.35,2.66.65,4.93,2.02,6.95,3.83,1.56,1.41,3.34,2.42,5.39,2.93,1.27.32,2.56.47,3.92.35v-.62c0-6.25,0-12.49,0-18.74,0-1.49-.65-2.13-2.15-2.13-5.02,0-10.03,0-15.05,0-.19,0-.38.02-.59.03v14ZM62.39,72.89c-.03,5.79,4.71,10.55,10.51,10.58,5.79.03,10.55-4.71,10.58-10.51.03-5.84-4.68-10.64-10.48-10.69-5.79-.05-10.58,4.75-10.61,10.62ZM68.88,49.01c2.64-3.39,2.97-9.44-1.1-13.51-4.07-4.07-10.08-3.79-13.52-1.12,1.02,1.02,2.03,2.05,3.06,3.06.1.1.32.1.49.1.88,0,1.76,0,2.64,0,2.95.03,5.1,1.93,5.4,4.85.11,1.06.03,2.15.06,3.22,0,.21.07.48.2.62.91.94,1.84,1.86,2.77,2.78ZM41.05,41.06c-.51,0-.95,0-1.4,0-1.44,0-2.1.66-2.1,2.12,0,3.9,0,7.8,0,11.7v.6c1.19-.2,2.34-.4,3.5-.6v-13.82Z"/>
    <path class="cls-1" d="M42.82,65.9c.96,0,1.76.79,1.76,1.75,0,.96-.79,1.76-1.75,1.76-.96,0-1.76-.79-1.76-1.75,0-.96.79-1.76,1.75-1.76Z"/>
    <path class="cls-1" d="M53.59,69.42c.96,0,1.76.78,1.77,1.74,0,.96-.78,1.76-1.74,1.77-.96,0-1.76-.78-1.77-1.74,0-.96.78-1.76,1.74-1.77Z"/>
    <path class="cls-1" d="M48.09,78.18c.02.96-.77,1.77-1.73,1.78-.96.01-1.76-.77-1.78-1.73-.01-.96.77-1.76,1.73-1.78.96-.01,1.76.77,1.78,1.73Z"/>
    <path class="cls-1" d="M79.96,73.17c-.09,3.64-3.17,6.71-6.81,6.78-1.1.02-1.91-.66-1.96-1.65-.06-.99.68-1.77,1.77-1.86,2.07-.17,3.33-1.42,3.49-3.47.09-1.1.84-1.84,1.83-1.8,1.02.04,1.71.86,1.68,1.99Z"/>
  </g>
</svg>